name Walk9.mot
datacolumns 19
datarows 20
range 2.30400000 2.32300000
endheader

                time	   L_ground_force_vx	   L_ground_force_vy	   L_ground_force_vz	   L_ground_force_px	   L_ground_force_py	   L_ground_force_pz	   R_ground_force_vx	   R_ground_force_vy	   R_ground_force_vz	   R_ground_force_px	   R_ground_force_py	   R_ground_force_pz	   L_ground_torque_x	   L_ground_torque_y	   L_ground_torque_z	   R_ground_torque_x	   R_ground_torque_y	   R_ground_torque_z	
          2.30400000	          0.00000010	          0.00000035	         -0.00000002	         -0.00000000	          0.00000000	         -0.00000000	         33.75566075	        145.28704264	          6.35600307	          0.19554222	          0.00000000	          0.04120342	          0.00000000	         -0.00000000	          0.00000000	          0.00000000	         -7.98670385	          0.00000000	
          2.30500000	          0.00000010	          0.00000032	         -0.00000002	         -0.00000000	          0.00000000	         -0.00000000	         32.13490814	        137.68917465	          6.36278226	          0.19290845	          0.00000000	          0.04054577	          0.00000000	         -0.00000000	          0.00000000	          0.00000000	         -7.66354416	          0.00000000	
          2.30600000	          0.00000009	          0.00000029	         -0.00000002	         -0.00000000	          0.00000000	         -0.00000000	         30.53862335	        130.27379178	          6.34919669	          0.19012305	          0.00000000	          0.03986286	          0.00000000	         -0.00000000	          0.00000000	          0.00000000	         -7.34232108	          0.00000000	
          2.30700000	          0.00000008	          0.00000026	         -0.00000002	         -0.00000000	          0.00000000	         -0.00000000	         28.96930844	        123.04619058	          6.31632016	          0.18718456	          0.00000000	          0.03915449	          0.00000000	         -0.00000000	          0.00000000	          0.00000000	         -7.02361421	          0.00000000	
          2.30800000	          0.00000007	          0.00000024	         -0.00000002	         -0.00000000	          0.00000000	         -0.00000000	         27.42932064	        116.01120075	          6.26527911	          0.18409205	          0.00000000	          0.03842057	          0.00000000	         -0.00000000	          0.00000000	          0.00000000	         -6.70798508	          0.00000000	
          2.30900000	          0.00000006	          0.00000021	         -0.00000002	         -0.00000000	          0.00000000	         -0.00000000	         25.92086651	        109.17315554	          6.19724275	          0.18084514	          0.00000000	          0.03766110	          0.00000000	         -0.00000000	          0.00000000	          0.00000000	         -6.39597544	          0.00000000	
          2.31000000	          0.00000006	          0.00000019	         -0.00000002	         -0.00000000	          0.00000000	         -0.00000000	         24.44599751	        102.53586593	          6.11341326	          0.17744411	          0.00000000	          0.03687620	          0.00000000	         -0.00000000	          0.00000000	          0.00000000	         -6.08810591	          0.00000000	
          2.31100000	          0.00000005	          0.00000016	         -0.00000002	         -0.00000000	          0.00000000	         -0.00000000	         23.00660696	         96.10259937	          6.01501648	          0.17388993	          0.00000000	          0.03606611	          0.00000000	         -0.00000000	          0.00000000	          0.00000000	         -5.78487481	          0.00000000	
          2.31200000	          0.00000004	          0.00000014	         -0.00000002	         -0.00000000	          0.00000000	         -0.00000000	         21.60442794	         89.87606468	          5.90329318	          0.17018428	          0.00000000	          0.03523117	          0.00000000	         -0.00000000	          0.00000000	          0.00000000	         -5.48675705	          0.00000000	
          2.31300000	          0.00000004	          0.00000012	         -0.00000002	         -0.00000000	          0.00000000	         -0.00000000	         20.24103195	         83.85840456	          5.77949085	          0.16632966	          0.00000000	          0.03437185	          0.00000000	         -0.00000000	          0.00000000	          0.00000000	         -5.19420299	          0.00000000	
          2.31400000	          0.00000003	          0.00000010	         -0.00000001	         -0.00000000	          0.00000000	         -0.00000000	         18.91782766	         78.05119700	          5.64485558	          0.16232942	          0.00000000	          0.03348875	          0.00000000	         -0.00000000	          0.00000000	          0.00000000	         -4.90763730	          0.00000000	
          2.31500000	          0.00000003	          0.00000009	         -0.00000001	         -0.00000000	          0.00000000	         -0.00000000	         17.63605950	         72.45546619	          5.50062387	          0.15818791	          0.00000000	          0.03258256	          0.00000000	         -0.00000000	          0.00000000	          0.00000000	         -4.62745763	          0.00000000	
          2.31600000	          0.00000002	          0.00000007	         -0.00000001	         -0.00000000	          0.00000000	         -0.00000000	         16.39680568	         67.07170241	          5.34801416	          0.15391056	          0.00000000	          0.03165416	          0.00000000	         -0.00000000	          0.00000000	          0.00000000	         -4.35403332	          0.00000000	
          2.31700000	          0.00000002	          0.00000005	         -0.00000001	         -0.00000000	          0.00000000	         -0.00000000	         15.20097557	         61.89988966	          5.18821809	          0.14950409	          0.00000000	          0.03070458	          0.00000000	         -0.00000000	          0.00000000	          0.00000000	         -4.08770406	          0.00000000	
          2.31800000	          0.00000001	          0.00000004	         -0.00000001	         -0.00000000	          0.00000000	         -0.00000000	         14.04930644	         56.93953933	          5.02239146	          0.14497663	          0.00000000	          0.02973510	          0.00000000	         -0.00000000	          0.00000000	          0.00000000	         -3.82877862	          0.00000000	
          2.31900000	          0.00000001	          0.00000003	         -0.00000001	         -0.00000000	          0.00000000	         -0.00000000	         12.94235986	         52.18972766	          4.85164531	          0.14033791	          0.00000000	          0.02874724	          0.00000000	         -0.00000000	          0.00000000	          0.00000000	         -3.57753364	          0.00000000	
          2.32000000	          0.00000000	          0.00000002	         -0.00000001	         -0.00000000	          0.00000000	         -0.00000000	         11.88051841	         47.64913408	          4.67703714	          0.13559937	          0.00000000	          0.02774288	          0.00000000	          0.00000000	          0.00000000	          0.00000000	         -3.33421261	          0.00000000	
          2.32100000	          0.00000000	          0.00000000	         -0.00000001	         -0.00000000	          0.00000000	         -0.00000000	         10.86398346	         43.31607596	          4.49956301	          0.13077434	          0.00000000	          0.02672429	          0.00000000	          0.00000000	          0.00000000	          0.00000000	         -3.09902474	          0.00000000	
          2.32200000	         -0.00000000	         -0.00000001	         -0.00000001	         -0.00000000	          0.00000000	         -0.00000000	          9.89277545	         39.18853472	          4.32015098	          0.12587812	          0.00000000	          0.02569419	          0.00000000	          0.00000000	          0.00000000	          0.00000000	         -2.87214404	          0.00000000	
          2.32300000	         -0.00000001	         -0.00000002	         -0.00000001	         -0.00000000	          0.00000000	         -0.00000000	          8.96673755	         35.26416856	          4.13965671	          0.12092811	          0.00000000	          0.02465585	          0.00000000	          0.00000000	          0.00000000	          0.00000000	         -2.65370853	          0.00000000	
